<svg data-v-423bf9ae="" xmlns="http://www.w3.org/2000/svg" viewBox="0 0 60 60" class="icon"><!----><!----><!----><!----><g data-v-423bf9ae="" id="0d6a5283-f183-4ad6-88dd-cee83b9689b8" transform="matrix(0.49314528356832027,0,0,0.49314528356832027,-4.273597207998257,-4.273597207998257)" stroke="none" fill="black"><path d="M69.5 8.666c-33.544 0-60.834 27.29-60.834 60.834s27.29 60.834 60.834 60.834 60.834-27.29 60.834-60.834S103.044 8.666 69.5 8.666zm0 115.668c-30.235 0-54.834-24.599-54.834-54.834S39.265 14.666 69.5 14.666s54.834 24.599 54.834 54.834-24.599 54.834-54.834 54.834z"></path><path d="M53.325 54.383h5.552c6.664-8.097-6.663-16.194 0-24.291h-5.552c-6.664 8.096 6.664 16.194 0 24.291zM66.752 54.383h5.553c6.663-8.097-6.664-16.194 0-24.291h-5.553c-6.664 8.096 6.664 16.194 0 24.291zM80.179 54.383h5.553c6.664-8.097-6.664-16.194 0-24.291h-5.553c-6.663 8.096 6.664 16.194 0 24.291zM102.786 77.989l-5.307 1.369v-4.76c3.218-1.028 5.556-4.045 5.556-7.6 0-4.4-3.579-7.979-7.979-7.979H44.001c-4.4 0-7.979 3.58-7.979 7.979 0 3.555 2.338 6.571 5.556 7.6v4.637l-4.828-1.246a4 4 0 1 0-1.999 7.746l6.827 1.762v9.479c0 5.115 4.161 9.277 9.276 9.277h37.35c5.115 0 9.276-4.162 9.276-9.277V87.62l7.305-1.885a3.999 3.999 0 1 0-1.999-7.746zM44.001 65.02h51.056c1.091 0 1.979.888 1.979 1.979a1.982 1.982 0 0 1-1.979 1.979H44.001a1.982 1.982 0 0 1-1.979-1.979 1.98 1.98 0 0 1 1.979-1.979zm44.202 35.234h-37.35a3.28 3.28 0 0 1-3.276-3.277V74.978h43.902v21.999a3.28 3.28 0 0 1-3.276 3.277z"></path></g><!----></svg>